{"asset":{"version":"2.0","generator":"THREE.GLTFExporter"},"scenes":[{"nodes":[0],"name":"AuxScene"}],"scene":0,"nodes":[{"mesh":0}],"bufferViews":[{"buffer":0,"byteOffset":0,"byteLength":34848,"target":34962,"byteStride":12},{"buffer":0,"byteOffset":34848,"byteLength":34848,"target":34962,"byteStride":12}],"buffers":[{"byteLength":69696,"uri":"data:application/octet-stream;base64,"}],"accessors":[{"bufferView":0,"componentType":5126,"count":2904,"max":[100.91192626953125,2.7959749698638916,100.61190795898438],"min":[-100.68809509277344,0.19596900045871735,-100.98809051513672],"type":"VEC3"},{"bufferView":1,"componentType":5126,"count":2904,"max":[0.9805813431739807,1,0.5732389092445374],"min":[-0.9191436767578125,0.1559906005859375,-0.8857298493385315],"type":"VEC3"}],"materials":[{"pbrMetallicRoughness":{"baseColorFactor":[0.5019607843137255,0.5019607843137255,0.5019607843137255,1],"metallicFactor":0,"roughnessFactor":1}}],"meshes":[{"primitives":[{"mode":4,"attributes":{"POSITION":0,"NORMAL":1},"material":0}]}]}